<?xml version="1.0" encoding="iso-8859-1"?>
<!-- Generator: Adobe Illustrator 19.0.0, SVG Export Plug-In . SVG Version: 6.00 Build 0)  -->
<svg version="1.1" id="Capa_1" xmlns="http://www.w3.org/2000/svg" xmlns:xlink="http://www.w3.org/1999/xlink" x="0px" y="0px"
	 viewBox="0 0 512 512" style="enable-background:new 0 0 512 512;" xml:space="preserve">
<path style="fill:#FF8C5A;" d="M172.249,30.528c-19.382,7.041-34.373,21.426-41.868,39.748c-3.861-0.53-7.874-0.908-11.887-0.908
	c-25.818,0-49.969,12.341-64.506,32.934c-18.474,26.12-17.641,60.342,0,85.554C27.565,200.196,10,226.165,10,255.92
	c0,31.344,19.912,58.525,48.303,69.957c-14.006,19.458-17.565,45.275-7.798,68.14c15.899,33.918,46.789,46.941,77.982,43.231
	c11.129,29.83,36.19,47.547,69.2,48.607c5.086,0,11.477-1.439,17.735-3.353c14.537-4.448,24.436-17.91,24.025-33.112V61.194
	c0.412-16.654-11.387-31.236-27.803-34.045C199.774,25.118,186.697,26.104,172.249,30.528z"/>
<path d="M143.269,392.09c-5.523,0-10-4.477-10-10s4.477-10,10-10c24.297,0,44.064-19.767,44.064-44.064c0-5.523,4.477-10,10-10
	s10,4.477,10,10C207.333,363.351,178.594,392.09,143.269,392.09z"/>
<path d="M134.102,240.383c-5.523,0-10-4.477-10-10s4.477-10,10-10c24.297,0,44.064-19.767,44.064-44.064c0-5.523,4.477-10,10-10
	s10,4.477,10,10C198.166,211.644,169.427,240.383,134.102,240.383z"/>
<path style="fill:#FF5A5A;" d="M502,203.041c0-93.326-45.474-157.772-143.374-157.772c-23.653,0-45.5,6.971-63.855,15.975
	c-34.078,16.718-55.324,51.755-55.324,89.712l-0.002,315.622c0.133,0.087,0.224,0.146,0.224,0.146s102.245-33.168,195.934-119.343
	C481.473,305.192,502,255.083,502,203.041z"/>
<path d="M274.14,164.437c-0.649,0-1.31-0.06-1.95-0.19s-1.27-0.32-1.87-0.57s-1.189-0.56-1.729-0.92
	c-0.55-0.37-1.06-0.79-1.521-1.25c-0.46-0.46-0.88-0.97-1.239-1.52c-0.36-0.54-0.67-1.12-0.92-1.72c-0.25-0.61-0.441-1.24-0.57-1.87
	c-0.13-0.65-0.2-1.31-0.2-1.96s0.07-1.31,0.2-1.95s0.32-1.27,0.57-1.87c0.25-0.61,0.559-1.19,0.92-1.73
	c0.359-0.55,0.779-1.06,1.239-1.52c0.461-0.46,0.971-0.88,1.521-1.24c0.54-0.36,1.13-0.67,1.729-0.92
	c0.601-0.25,1.23-0.44,1.87-0.57c1.29-0.26,2.62-0.26,3.91,0c0.63,0.13,1.26,0.32,1.87,0.57c0.6,0.25,1.18,0.56,1.72,0.92
	c0.551,0.36,1.061,0.78,1.521,1.24c0.47,0.46,0.88,0.97,1.25,1.52c0.359,0.54,0.67,1.12,0.92,1.73c0.25,0.6,0.439,1.23,0.57,1.87
	c0.13,0.64,0.189,1.3,0.189,1.95s-0.06,1.31-0.189,1.96c-0.131,0.63-0.32,1.26-0.57,1.87c-0.25,0.6-0.561,1.18-0.92,1.72
	c-0.37,0.55-0.78,1.06-1.25,1.52c-0.46,0.46-0.97,0.88-1.521,1.25c-0.54,0.36-1.12,0.67-1.72,0.92c-0.61,0.25-1.24,0.44-1.87,0.57
	C275.45,164.377,274.79,164.437,274.14,164.437z"/>
<path d="M474.646,82.682c-26.736-31.461-65.772-47.413-116.02-47.413c-22.302,0-45.268,5.719-68.259,16.997
	c-16.393,8.042-30.421,20.114-40.92,35.116V61.308c0.465-21.5-15.04-40.41-36.116-44.016c-13.624-2.332-28.432-1.096-44.009,3.674
	c-0.164,0.05-0.327,0.104-0.487,0.163c-19.306,7.014-35.172,20.82-44.482,38.456c-2.041-0.145-3.985-0.217-5.858-0.217
	c-29.079,0-56.248,13.894-72.67,37.16c-18.28,25.847-20.213,59.796-5.792,87.553C15.091,199.696,0,226.35,0,255.92
	c0,30.94,16.947,58.965,44.02,74.175c-10.831,21.001-12.014,46.07-2.711,67.85c0.045,0.107,0.093,0.211,0.142,0.316
	c15.426,32.906,45.209,51.043,80.619,49.531c13.795,29.559,40.845,46.95,75.297,48.056c0.107,0.003,0.214,0.005,0.321,0.005
	c5.565,0,12.324-1.24,20.661-3.79c9.021-2.76,16.648-8.254,22.096-15.369c0.779-0.06,1.555-0.212,2.312-0.458
	c4.259-1.382,105.405-34.838,199.618-121.496C487.924,312.845,512,260.388,512,203.041C512,153.057,499.083,111.438,474.646,82.682z
	 M212.497,472.939c-7.719,2.362-12.219,2.895-14.663,2.915c-28.917-0.986-50.213-15.933-59.977-42.102
	c-1.472-3.946-5.234-6.505-9.364-6.505c-0.393,0-0.789,0.023-1.187,0.07c-30.129,3.586-54.785-10.04-67.672-37.387
	c-6.71-15.842-5.992-34.016,1.562-49.47c6.245,3.463,13.266,5.391,20.561,5.556c0.341,0.008,0.679,0.012,1.019,0.012
	c11.396,0,22.002-4.347,29.958-12.302c3.905-3.905,3.905-10.237,0-14.143c-3.905-3.905-10.237-3.905-14.143,0
	c-4.293,4.293-10.117,6.579-16.382,6.438c-6.346-0.144-12.325-2.706-16.834-7.216c-0.083-0.083-0.174-0.154-0.259-0.234
	c-0.11-0.102-0.219-0.204-0.333-0.301c-0.175-0.149-0.355-0.288-0.537-0.423c-0.1-0.074-0.198-0.151-0.301-0.221
	c-0.234-0.16-0.475-0.307-0.719-0.445c-0.063-0.036-0.123-0.076-0.186-0.11c-0.33-0.178-0.667-0.338-1.012-0.476
	C36.496,306.31,20,282.495,20,255.92c0-21.181,10.202-40.423,27.274-52.613c6.487,15.757,21.817,26.694,39.719,26.694
	c5.523,0,10-4.477,10-10s-4.477-10-10-10c-12.406,0-22.514-9.9-23.012-22.54c-0.002-0.047-0.01-0.092-0.012-0.139
	c-0.008-0.152-0.026-0.302-0.041-0.453c-0.02-0.206-0.042-0.411-0.074-0.612c-0.021-0.129-0.048-0.257-0.074-0.385
	c-0.045-0.225-0.095-0.447-0.155-0.667c-0.029-0.107-0.062-0.213-0.095-0.319c-0.074-0.238-0.155-0.472-0.246-0.701
	c-0.036-0.09-0.072-0.18-0.111-0.27c-0.104-0.244-0.219-0.482-0.342-0.715c-0.039-0.075-0.077-0.15-0.119-0.224
	c-0.142-0.254-0.296-0.499-0.459-0.739c-0.025-0.037-0.045-0.077-0.071-0.114c-15.586-22.275-15.598-52.032-0.023-74.054
	c12.686-17.972,33.746-28.701,56.336-28.701c0.926,0,1.897,0.032,2.892,0.081c4.272,19.365,21.766,33.915,42.647,33.915
	c5.523,0,10-4.477,10-10s-4.477-10-10-10c-12.387,0-22.573-9.344-23.566-21.189c6.706-14.931,19.032-26.306,34.957-32.16
	c12.47-3.784,24.087-4.796,34.533-3.008c11.401,1.951,19.781,12.243,19.492,23.941c-0.002,0.083-0.003,0.165-0.003,0.247v194.97
	l-0.001,193.805C229.588,460.41,222.664,469.828,212.497,472.939z M428.835,340.022c-51.882,47.72-106.871,79.045-144.691,97.203
	V196.143c0-5.523-4.478-10-10-10c-5.523,0-10,4.477-10,10v250.219c-5.682,2.46-10.629,4.485-14.698,6.088v-1.225
	c0.014-0.652,0.017-1.306,0.001-1.962V251.454l0.001-100.498c0-34.225,19.52-65.915,49.729-80.735
	c20.227-9.922,40.228-14.953,59.45-14.953C474.673,55.269,492,147.853,492,203.041C492,255.382,470.748,301.469,428.835,340.022z"/>
<g>
</g>
<g>
</g>
<g>
</g>
<g>
</g>
<g>
</g>
<g>
</g>
<g>
</g>
<g>
</g>
<g>
</g>
<g>
</g>
<g>
</g>
<g>
</g>
<g>
</g>
<g>
</g>
<g>
</g>
</svg>
