<?xml version="1.0" encoding="iso-8859-1"?>
<!-- Generator: Adobe Illustrator 19.0.0, SVG Export Plug-In . SVG Version: 6.00 Build 0)  -->
<svg version="1.1" id="Capa_1" xmlns="http://www.w3.org/2000/svg" xmlns:xlink="http://www.w3.org/1999/xlink" x="0px" y="0px"
	 viewBox="0 0 400 400" style="enable-background:new 0 0 400 400;" xml:space="preserve">
<path style="fill:#FFD9F3;" d="M312,0H112C94.328,0,80,14.328,80,32v8H32C14.328,40,0,54.328,0,72v40c0,17.672,14.328,32,32,32h48
	v56v104v32c0,17.68,14.32,32,32,32h24h24c0,17.672,14.328,32,32,32h96c17.672,0,32-14.328,32-32h24h24c17.672,0,32-14.328,32-32V88
	v-8L320,0H312z M272,72c0-17.672-14.328-32-32-32C257.68,40,272,54.32,272,72z M272,112c0,17.68-14.32,32-32,32
	C257.672,144,272,129.672,272,112z"/>
<g>
	<path style="fill:#FF3FC2;" d="M272,72v40c0,17.672-14.328,32-32,32H32c-17.672,0-32-14.328-32-32V72c0-17.672,14.328-32,32-32h208
		C257.672,40,272,54.328,272,72z"/>
	<path style="fill:#FF3FC2;" d="M288,400h-96c-17.672,0-32-14.328-32-32v-80c0-17.672,14.328-32,32-32h96c17.672,0,32,14.328,32,32
		v80C320,385.672,305.672,400,288,400z"/>
</g>
<path style="fill:#FF8CDA;" d="M320,0h-8v56c0,17.672,14.328,32,32,32h56v-8L320,0z"/>
<g>
	<polygon style="fill:#FFFFFF;" points="285.784,368.064 267.576,368.064 264,362.184 240,320.184 221.784,352.064 240,352.12 
		244.568,352.128 254.128,368.064 194.216,368.064 240,287.936 	"/>
	<rect x="24" y="104" style="fill:#FFFFFF;" width="16" height="16"/>
	<path style="fill:#FFFFFF;" d="M64.936,119.968l4.208-10.176c0.96-2.328,1.944-4.728,2.92-7.4c1.128,2.8,2.112,5.112,3.192,7.424
		l4.544,10.16h17.936L82.624,91.984l14.248-27.816H79.6l-3.352,9.352c-0.832,2.08-1.792,4.536-2.784,7.4
		c-0.32-0.768-0.624-1.504-0.92-2.208c-0.8-1.936-1.52-3.68-2.232-5.192l-3.872-9.344H48.504l14.264,27.152l-15.104,28.656h17.272
		V119.968z"/>
	<path style="fill:#FFFFFF;" d="M147.776,91.816c0-18.088-9.904-27.648-28.648-27.648h-16.832v55.808h17.664
		C137.632,119.968,147.776,109.704,147.776,91.816z M118.304,106.792V77.344c6.824,0,13.136,1.76,13.136,14.472
		C131.44,105.08,124.424,106.792,118.304,106.792z"/>
</g>
<g>
</g>
<g>
</g>
<g>
</g>
<g>
</g>
<g>
</g>
<g>
</g>
<g>
</g>
<g>
</g>
<g>
</g>
<g>
</g>
<g>
</g>
<g>
</g>
<g>
</g>
<g>
</g>
<g>
</g>
</svg>
